<svg viewBox="0 0 900 2300" xmlns="http://www.w3.org/2000/svg" style="background:#fff;">
  <title>Wireframe About Us — Il Ristorante</title>
  <style>
    text { font-family: Arial, sans-serif; fill: #555; }
    .label { font-size: 11px; fill: #888; }
    .box { fill: none; stroke: #555; stroke-width: 1.2; }
    .imgbox { fill: #d9d9d9; stroke: #555; stroke-width: 1.2; }
    .cross { stroke: #888; stroke-width: 0.9; }
  </style>

  <!-- NAV -->
  <rect x="30" y="20" width="840" height="52" class="box"/>
  <rect x="46" y="28" width="72" height="36" class="imgbox"/>
  <line x1="46" y1="28" x2="118" y2="64" class="cross"/>
  <line x1="118" y1="28" x2="46" y2="64" class="cross"/>
  <rect x="200" y="39" width="70" height="10" fill="#d9d9d9"/>
  <rect x="292" y="39" width="70" height="10" fill="#d9d9d9"/>
  <rect x="384" y="39" width="130" height="10" fill="#d9d9d9"/>
  <rect x="536" y="39" width="60" height="10" fill="#d9d9d9"/>
  <rect x="618" y="39" width="76" height="10" fill="#aaa"/>
  <text class="label" x="30" y="88">① nav</text>

  <!-- HERO -->
  <rect x="30" y="104" width="840" height="210" class="imgbox"/>
  <line x1="30" y1="104" x2="870" y2="314" class="cross"/>
  <line x1="870" y1="104" x2="30" y2="314" class="cross"/>
  <rect x="370" y="182" width="160" height="9" fill="#bbb"/>
  <rect x="340" y="198" width="220" height="16" fill="#aaa"/>
  <rect x="426" y="222" width="48" height="7" fill="#bbb"/>
  <text class="label" x="30" y="330">② hero — imagen full-width con título</text>

  <!-- INTRO -->
  <rect x="30" y="346" width="840" height="148" class="box"/>
  <rect x="350" y="366" width="200" height="13" fill="#d9d9d9"/>
  <line x1="360" y1="386" x2="540" y2="386" stroke="#bbb" stroke-width="0.9"/>
  <rect x="140" y="398" width="620" height="9" fill="#e8e8e8"/>
  <rect x="160" y="413" width="580" height="9" fill="#e8e8e8"/>
  <rect x="150" y="428" width="600" height="9" fill="#e8e8e8"/>
  <rect x="180" y="443" width="540" height="9" fill="#e8e8e8"/>
  <rect x="200" y="458" width="500" height="9" fill="#e8e8e8"/>
  <text class="label" x="30" y="510">③ intro — título centrado + párrafo</text>

  <!-- STATS BAR -->
  <rect x="30" y="526" width="840" height="88" class="imgbox"/>
  <rect x="80"  y="548" width="56" height="26" fill="#aaa"/>
  <rect x="72"  y="580" width="72" height="8"  fill="#bbb"/>
  <line x1="240" y1="538" x2="240" y2="604" stroke="#ccc" stroke-width="0.8"/>
  <rect x="290" y="548" width="56" height="26" fill="#aaa"/>
  <rect x="282" y="580" width="72" height="8"  fill="#bbb"/>
  <line x1="450" y1="538" x2="450" y2="604" stroke="#ccc" stroke-width="0.8"/>
  <rect x="500" y="548" width="56" height="26" fill="#aaa"/>
  <rect x="492" y="580" width="72" height="8"  fill="#bbb"/>
  <line x1="660" y1="538" x2="660" y2="604" stroke="#ccc" stroke-width="0.8"/>
  <rect x="710" y="548" width="56" height="26" fill="#aaa"/>
  <rect x="702" y="580" width="72" height="8"  fill="#bbb"/>
  <text class="label" x="30" y="630">④ stats bar — 4 cifras sobre fondo oscuro</text>

  <!-- FILOSOFÍA -->
  <rect x="30" y="646" width="840" height="210" class="box"/>
  <line x1="450" y1="646" x2="450" y2="856" stroke="#ccc" stroke-width="0.9" stroke-dasharray="5,4"/>
  <rect x="60"  y="676" width="22" height="30" fill="#e0e0e0"/>
  <rect x="60"  y="716" width="360" height="9"  fill="#e0e0e0"/>
  <rect x="60"  y="731" width="340" height="9"  fill="#e0e0e0"/>
  <rect x="60"  y="746" width="350" height="9"  fill="#e0e0e0"/>
  <rect x="60"  y="761" width="300" height="9"  fill="#e0e0e0"/>
  <rect x="60"  y="784" width="150" height="8"  fill="#ccc"/>
  <rect x="468" y="660" width="354" height="172" class="imgbox"/>
  <line x1="468" y1="660" x2="822" y2="832" class="cross"/>
  <line x1="822" y1="660" x2="468" y2="832" class="cross"/>
  <rect x="458" y="650" width="354" height="172" fill="none" stroke="#ccc" stroke-width="0.8" stroke-dasharray="3,3"/>
  <text class="label" x="30" y="872">⑤ filosofía — cita (izq.) + imagen (der.)</text>

  <!-- TIMELINE -->
  <rect x="30" y="888" width="840" height="400" fill="#f7f7f7" stroke="#555" stroke-width="1.2"/>
  <rect x="330" y="910" width="240" height="13" fill="#d9d9d9"/>
  <line x1="360" y1="930" x2="540" y2="930" stroke="#bbb" stroke-width="0.9"/>
  <line x1="450" y1="948" x2="450" y2="1260" stroke="#999" stroke-width="1.1"/>
  <rect x="140" y="964" width="240" height="10" fill="#d9d9d9"/>
  <rect x="160" y="980" width="200" height="8"  fill="#e8e8e8"/>
  <rect x="170" y="994" width="180" height="8"  fill="#e8e8e8"/>
  <circle cx="450" cy="982" r="18" fill="#fff" stroke="#555" stroke-width="1.2"/>
  <rect x="434" y="975" width="32" height="14" fill="#d9d9d9"/>
  <circle cx="450" cy="1060" r="18" fill="#d9d9d9" stroke="#555" stroke-width="1.2"/>
  <rect x="434" y="1053" width="32" height="14" fill="#aaa"/>
  <rect x="470" y="1048" width="240" height="10" fill="#d9d9d9"/>
  <rect x="470" y="1064" width="200" height="8"  fill="#e8e8e8"/>
  <rect x="470" y="1078" width="180" height="8"  fill="#e8e8e8"/>
  <rect x="140" y="1128" width="240" height="10" fill="#d9d9d9"/>
  <rect x="160" y="1144" width="200" height="8"  fill="#e8e8e8"/>
  <rect x="170" y="1158" width="180" height="8"  fill="#e8e8e8"/>
  <circle cx="450" cy="1146" r="18" fill="#fff" stroke="#555" stroke-width="1.2"/>
  <rect x="434" y="1139" width="32" height="14" fill="#d9d9d9"/>
  <circle cx="450" cy="1224" r="18" fill="#d9d9d9" stroke="#555" stroke-width="1.2"/>
  <rect x="434" y="1217" width="32" height="14" fill="#aaa"/>
  <rect x="470" y="1212" width="240" height="10" fill="#d9d9d9"/>
  <rect x="470" y="1228" width="200" height="8"  fill="#e8e8e8"/>
  <rect x="470" y="1242" width="180" height="8"  fill="#e8e8e8"/>
  <text class="label" x="30" y="1302">⑥ timeline — 4 hitos alternos, eje central</text>

  <!-- EQUIPO -->
  <rect x="30" y="1318" width="840" height="300" class="box"/>
  <rect x="330" y="1340" width="240" height="13" fill="#d9d9d9"/>
  <line x1="360" y1="1360" x2="540" y2="1360" stroke="#bbb" stroke-width="0.9"/>
  <circle cx="170" cy="1430" r="58" fill="#d9d9d9" stroke="#555" stroke-width="1.2"/>
  <line x1="119" y1="1379" x2="221" y2="1481" class="cross"/>
  <line x1="221" y1="1379" x2="119" y2="1481" class="cross"/>
  <rect x="114" y="1498" width="112" height="11" fill="#d9d9d9"/>
  <rect x="128" y="1516" width="84"  height="8"  fill="#e8e8e8"/>
  <rect x="114" y="1530" width="112" height="7"  fill="#efefef"/>
  <rect x="120" y="1543" width="100" height="7"  fill="#efefef"/>
  <circle cx="450" cy="1430" r="58" fill="#d9d9d9" stroke="#555" stroke-width="1.2"/>
  <line x1="399" y1="1379" x2="501" y2="1481" class="cross"/>
  <line x1="501" y1="1379" x2="399" y2="1481" class="cross"/>
  <rect x="394" y="1498" width="112" height="11" fill="#d9d9d9"/>
  <rect x="408" y="1516" width="84"  height="8"  fill="#e8e8e8"/>
  <rect x="394" y="1530" width="112" height="7"  fill="#efefef"/>
  <rect x="400" y="1543" width="100" height="7"  fill="#efefef"/>
  <circle cx="730" cy="1430" r="58" fill="#d9d9d9" stroke="#555" stroke-width="1.2"/>
  <line x1="679" y1="1379" x2="781" y2="1481" class="cross"/>
  <line x1="781" y1="1379" x2="679" y2="1481" class="cross"/>
  <rect x="674" y="1498" width="112" height="11" fill="#d9d9d9"/>
  <rect x="688" y="1516" width="84"  height="8"  fill="#e8e8e8"/>
  <rect x="674" y="1530" width="112" height="7"  fill="#efefef"/>
  <rect x="680" y="1543" width="100" height="7"  fill="#efefef"/>
  <text class="label" x="30" y="1634">⑦ equipo — 3 avatares circulares + texto</text>

  <!-- VALORES -->
  <rect x="30" y="1650" width="840" height="300" fill="#d9d9d9" stroke="#555" stroke-width="1.2"/>
  <rect x="330" y="1672" width="240" height="13" fill="#bbb"/>
  <line x1="360" y1="1692" x2="540" y2="1692" stroke="#999" stroke-width="0.9"/>
  <circle cx="170" cy="1760" r="32" fill="none" stroke="#888" stroke-width="1.2"/>
  <line x1="147" y1="1737" x2="193" y2="1783" class="cross"/>
  <line x1="193" y1="1737" x2="147" y2="1783" class="cross"/>
  <rect x="114" y="1804" width="112" height="11" fill="#bbb"/>
  <rect x="120" y="1822" width="100" height="7"  fill="#ccc"/>
  <rect x="124" y="1835" width="92"  height="7"  fill="#ccc"/>
  <rect x="128" y="1848" width="84"  height="7"  fill="#ccc"/>
  <circle cx="450" cy="1760" r="32" fill="none" stroke="#888" stroke-width="1.2"/>
  <line x1="427" y1="1737" x2="473" y2="1783" class="cross"/>
  <line x1="473" y1="1737" x2="427" y2="1783" class="cross"/>
  <rect x="394" y="1804" width="112" height="11" fill="#bbb"/>
  <rect x="400" y="1822" width="100" height="7"  fill="#ccc"/>
  <rect x="404" y="1835" width="92"  height="7"  fill="#ccc"/>
  <rect x="408" y="1848" width="84"  height="7"  fill="#ccc"/>
  <circle cx="730" cy="1760" r="32" fill="none" stroke="#888" stroke-width="1.2"/>
  <line x1="707" y1="1737" x2="753" y2="1783" class="cross"/>
  <line x1="753" y1="1737" x2="707" y2="1783" class="cross"/>
  <rect x="674" y="1804" width="112" height="11" fill="#bbb"/>
  <rect x="680" y="1822" width="100" height="7"  fill="#ccc"/>
  <rect x="684" y="1835" width="92"  height="7"  fill="#ccc"/>
  <rect x="688" y="1848" width="84"  height="7"  fill="#ccc"/>
  <text class="label" x="30" y="1966">⑧ valores — fondo gris, 3 iconos + texto</text>

  <!-- CTA -->
  <rect x="30" y="1982" width="840" height="130" class="box"/>
  <rect x="350" y="2006" width="200" height="9"  fill="#e0e0e0"/>
  <rect x="320" y="2022" width="260" height="16" fill="#d0d0d0"/>
  <rect x="345" y="2052" width="210" height="36" fill="none" stroke="#555" stroke-width="1.2"/>
  <rect x="368" y="2064" width="164" height="12" fill="#d9d9d9"/>
  <text class="label" x="30" y="2128">⑨ CTA — texto centrado + botón</text>

  <!-- FOOTER -->
  <rect x="30" y="2144" width="840" height="80" fill="#d9d9d9" stroke="#555" stroke-width="1.2"/>
  <rect x="54" y="2166" width="200" height="10" fill="#bbb"/>
  <line x1="54" y1="2182" x2="220" y2="2182" stroke="#999" stroke-width="1"/>
  <rect x="54" y="2190" width="260" height="8"  fill="#ccc"/>
  <rect x="622" y="2160" width="40" height="40" class="imgbox"/>
  <line x1="622" y1="2160" x2="662" y2="2200" class="cross"/>
  <line x1="662" y1="2160" x2="622" y2="2200" class="cross"/>
  <rect x="672" y="2160" width="40" height="40" class="imgbox"/>
  <line x1="672" y1="2160" x2="712" y2="2200" class="cross"/>
  <line x1="712" y1="2160" x2="672" y2="2200" class="cross"/>
  <rect x="722" y="2160" width="40" height="40" class="imgbox"/>
  <line x1="722" y1="2160" x2="762" y2="2200" class="cross"/>
  <line x1="762" y1="2160" x2="722" y2="2200" class="cross"/>
  <rect x="772" y="2160" width="40" height="40" class="imgbox"/>
  <line x1="772" y1="2160" x2="812" y2="2200" class="cross"/>
  <line x1="812" y1="2160" x2="772" y2="2200" class="cross"/>
  <text class="label" x="30" y="2240">⑩ footer — texto + iconos sociales</text>
</svg>
